<?xml version="1.0" standalone="no"?><!DOCTYPE svg PUBLIC "-//W3C//DTD SVG 1.1//EN" "http://www.w3.org/Graphics/SVG/1.1/DTD/svg11.dtd"><svg t="1691407786002" class="icon" viewBox="0 0 1024 1024" version="1.1" xmlns="http://www.w3.org/2000/svg" p-id="4038" xmlns:xlink="http://www.w3.org/1999/xlink" width="250" height="250"><path d="M859.152 880.369C815.784 743.301 710.631 634.512 575.114 586.52c75.234-44.907 121.585-125.82 122.266-213.434-1.413-139.589-115.452-251.744-255.045-250.836a253.644 253.644 0 0 0-257.15 250.836c0.78 87.647 47.209 168.549 122.5 213.434C172.438 634.701 67.57 743.459 24.356 880.369a56.093 56.093 0 0 0 9.348 52.129 60.534 60.534 0 0 0 48.625 23.377h718.845a60.762 60.762 0 0 0 48.626-23.377 56.105 56.105 0 0 0 9.352-52.129zM243.815 375.94c0-108.977 88.343-197.32 197.32-197.32s197.32 88.343 197.32 197.32c0 108.976-88.344 197.32-197.32 197.32s-197.32-88.344-197.32-197.32zM707.5 897.627h-563c-71 0.139-46.436-39.354-39.826-53.348C208.5 624.466 441.753 624.5 441.753 624.5c233.463 6.056 323.747 211 323.747 211 37 73.822-58 62.127-58 62.127z" p-id="4039"></path><path d="M1000.814 762.781c-39.674-124.47-134.561-223.668-257.148-268.837 67.169-41.949 108.255-115.304 108.938-194.495a233.774 233.774 0 0 0-70.039-165.004A233.764 233.764 0 0 0 616.26 67.548a240.922 240.922 0 0 0-89.301 17.3c130.373 35.44 221.351 153.144 222.788 288.239a293.62 293.62 0 0 1-79.953 200.81 514.301 514.301 0 0 1 227.692 261.354h46.756a59.148 59.148 0 0 0 46.752-23.375 54.22 54.22 0 0 0 9.82-49.095z" p-id="4040"></path><path d="M448.18 518.256a79.219 79.219 0 0 1-56.173-22.878 79.24 79.24 0 0 1-23.542-55.898h159.434a79.254 79.254 0 0 1-23.543 55.898 79.228 79.228 0 0 1-56.176 22.878z" p-id="4041"></path></svg>